<svg xmlns="http://www.w3.org/2000/svg" viewBox="0 0 226 149.07">  <g data-name="Layer 2">    <g data-name="Layer 1">      <path d="M0 0v127.07c48.3 0 58.1 22 113 22s64.1-22 113-22V0z" fill="#fbfbf8"/>      <path d="M6.2 0v121.47c22 .9 36.4 6.1 50.3 11 15.6 5.6 30.4 10.8 56.5 10.8s40.6-5.2 56.1-10.8c14-5 28.4-10.2 50.7-11.1V0" fill="none" stroke="#ede5d5" stroke-miterlimit="10"/>      <path d="M225 0v126.17c-23.3.1-37.3 5.2-52.2 10.6-15.6 5.5-31.7 11.3-59.8 11.3s-44.4-5.8-60.1-11.5c-14.9-5.3-29-10.3-51.9-10.4V0H0v127.07c48.3 0 58.1 22 113 22s64.1-22 113-22V0z" fill="#ede5d5"/>    </g>  </g></svg>